<svg xmlns="http://www.w3.org/2000/svg" viewBox="0 0 64 64">
  <circle cx="32" cy="32" r="29" fill="#d7ef62" stroke="#171713" stroke-width="3"/>
  <path d="M17 34v-6a15 15 0 0 1 30 0v6" fill="none" stroke="#171713" stroke-width="4" stroke-linecap="round"/>
  <path d="M17 34h4a3 3 0 0 1 3 3v9a3 3 0 0 1-3 3h-1a5 5 0 0 1-5-5v-8a2 2 0 0 1 2-2Z" fill="none" stroke="#171713" stroke-width="4" stroke-linejoin="round"/>
  <path d="M47 34h-4a3 3 0 0 0-3 3v9a3 3 0 0 0 3 3h1a5 5 0 0 0 5-5v-8a2 2 0 0 0-2-2Z" fill="none" stroke="#171713" stroke-width="4" stroke-linejoin="round"/>
</svg>
